<svg width="396" height="396" viewBox="0 0 396 396" fill="none" xmlns="http://www.w3.org/2000/svg">
<g clip-path="url(#clip0_1882_3076)">
<path d="M167.48 167.48L137 197.96C129.48 190.44 108.56 169.52 102.15 163.11C93.8598 154.82 79.9098 148.42 68.3898 148.42C56.8698 148.42 44.8698 150.68 32.4398 163.11C20.0098 175.54 17.7598 188.78 17.7598 198.67C17.7598 208.56 22.0698 222.45 32.4398 232.82C43.2998 243.68 54.9998 247.3 68.6398 247.3C82.2798 247.3 94.4398 240.53 102.15 232.82C108.17 226.8 129.45 205.52 137 197.97L167.52 228.48L198.03 259.01C190.47 266.57 169.19 287.85 163.18 293.86C155.47 301.57 148.7 313.73 148.7 327.37C148.7 341.01 152.32 352.71 163.18 363.57C173.55 373.94 187.43 378.25 197.33 378.25C207.22 378.25 220.46 376.01 232.89 363.57C245.32 351.14 247.58 339.14 247.58 327.62C247.58 316.1 241.18 302.15 232.89 293.86C226.47 287.44 205.56 266.53 198.04 259.01L228.52 228.53L259 198.05C266.52 205.57 287.44 226.49 293.85 232.9C302.14 241.19 316.09 247.59 327.61 247.59C339.13 247.59 351.13 245.33 363.56 232.9C375.99 220.47 378.24 207.23 378.24 197.34C378.24 187.45 373.93 173.56 363.56 163.19C352.7 152.33 341 148.71 327.36 148.71C313.72 148.71 301.56 155.48 293.85 163.19C287.83 169.21 266.55 190.49 259 198.04L228.48 167.53L197.97 137C205.53 129.44 226.81 108.16 232.82 102.15C240.53 94.44 247.3 82.28 247.3 68.64C247.3 55 243.68 43.3 232.82 32.44C222.45 22.07 208.57 17.76 198.67 17.76C188.78 17.76 175.54 20 163.11 32.44C150.68 44.87 148.42 56.87 148.42 68.39C148.42 79.91 154.82 93.86 163.11 102.15C169.53 108.57 190.44 129.48 197.96 137L167.48 167.48Z" stroke="#3060FF" stroke-width="34"/>
</g>
<defs>
<clipPath id="clip0_1882_3076">
<rect width="396" height="396" fill="white"/>
</clipPath>
</defs>
</svg>
